<svg xmlns="http://www.w3.org/2000/svg" viewBox="0 0 512 512" width="192px" height="192px"><path fill="#D6E5E5" d="M369 99.1c-14.3-8.6-32.7-11.5-48.6-5.7-9.3 3.4-17.2 9.3-21 18.8-3.9 9.9-3.7 21.1-1.2 31.3.3 1.1.2 2.1-.1 3 8.9 19.9 33.2 27.9 53.6 23 15.3-3.6 29.1-13.4 33.6-29.1C390 123.9 383.8 108 369 99.1zM401.6 341.8c-1.2-16.6-1.6-33-1.3-49.6.5-23.6-.1-50-15.1-69.7-14.7-19.2-38.9-29.2-62.9-26.5-15 1.7-30.8 7.6-43.4 17.1h-3.1c-2.2-1.5-4.2-4-5.7-6.2 0 0 0 0 0 0-4.1-6.2-6.9-13.2-11.7-18.9-7.2-8.6-20-10.9-30.7-10.3-11.1.6-21.8 4.2-30.4 11.4-2.2 1.8-4.1 3.8-5.9 5.9-1.1.2-2.3.4-3.4.6-.3.1-.6.2-.8.3h-3.9c-1.2-1.2-2.5-2.4-3.9-3.4-.3-.4-.6-.9-.8-1.6.5 1.7-.7-.6-1.3-1.3-1.2-1.3-2.3-2.5-3.5-3.7-2.2-2.2-4.4-4.5-6.6-6.7-7-7-20.1-9.7-29.6-9.2-17.2.9-34.4 8.9-41.6 25.2-6.3 14.2-6.3 30.4-6.7 45.6-.5 21.5-2.2 42.8-2.4 64.3 26.3 5.7 53.3 2.1 80 1.8 0-.4 0-.8 0-1.2h10.4c-.1 4.8-.4 9.5-.5 14.3-.1 5.3-.3 11.9 2.8 16.6 5.3 8.2 17 7 25.6 6.7 11.8-.4 23.6-.3 35.4-.2 0-.2 0-.3 0-.5h9.5V357c-.4 9.3-.6 18.5-.5 27.8 21.2 3.2 42.5 5.5 64 7.7 16 1.6 32.2 2 48.3 1.3 7.4-.3 14.9-.7 22.3-2 6.4-1.1 12.7-2.3 19.2-1.9C403.9 373.9 402.8 357.8 401.6 341.8zM163.1 115.2c-4.6-12.9-18-16.5-30-11.7-6 2.4-11.9 6.1-14.4 12.4-2.1 5.3-2.1 11-1.7 16.6.1.1.1.2.2.2 7.3 10.6 20.5 15 32.7 10.2C160.3 139 167 126.1 163.1 115.2z"/><path fill="#1E4384" d="M474.2,161.7c-16.1-46.6-46.7-87.1-91.3-109.6c-51-25.7-111-28.1-166.4-19.3C166.7,40.8,114.2,58.8,76.9,94c-19.6,18.5-34.7,40.9-42.7,66.8c-8,26-10.4,53.1-12.1,80.1c-0.1,1.1-0.4,2-1,2.7c0,0.2,0.1,0.5,0.1,0.8c0,52.9-1.1,108.3,30.1,153.9c25.3,37.1,64.5,61.5,107.2,73.7c88,25.2,194.2,9.6,264.9-50.8C497.5,357.9,504.3,248.9,474.2,161.7z M289.6,108.7c4.6-11.6,13.9-20,25.4-24.5c18.9-7.3,42.4-5.1,59.5,6c14.6,9.5,24.3,24.4,22.9,42.3c-1.3,17.1-11.5,32.9-26.7,41c-29.1,15.4-70.9,7.6-83.4-25.6c-0.6-1.6-0.4-3,0.2-4.2C285.2,132.1,285.2,119.8,289.6,108.7z M208.7,90.8c18.8-7.6,44.3-6.2,57.4,11.2c12.9,17.1,5.8,42.8-13,52.8c-19.9,10.5-42.5,3.3-57.5-12.1c-0.9-0.4-1.7-1-2.3-2.1C182.7,122.1,188.2,99.1,208.7,90.8z M111.2,107.7c4.5-7.4,12.9-12.7,21.1-14.9c8.3-2.3,17.9-3,25.7,1.4c7.2,4,13.4,10.7,15.4,18.9c3.8,15.8-3.8,34.5-20,39.9c-17,5.7-34.7,0.6-44.9-14.3c-0.1-0.1-0.2-0.3-0.3-0.4c-0.9-0.8-1.5-1.9-1.6-3.4C105.9,125.5,106.2,115.9,111.2,107.7z M413.6,392.9c-0.2,3.6-3.4,5.5-6.2,5.4c-1.1,1.3-2.7,2.2-4.8,2c-7.6-0.7-15.2,1.8-22.7,2.7c-7.5,0.9-15.1,1.2-22.6,1.4c-15.8,0.4-31.8,0-47.5-1.8c-21.8-2.5-43.7-4.6-65.4-8c-0.1,0-0.2,0-0.3-0.1c-2.4,0-4.8-1.5-4.9-4.7c-0.4-12.1,0.2-24.1,0.8-36.2c-12.1,0-24.3,0-36.4,0.3c-10.1,0.3-22.3,0.3-29.8-7.5c-7.4-7.7-7.7-18.8-7.3-28.9c-28.7,0.4-57.8,4.3-85.9-3c-2.1-0.6-4.2-2.3-4.2-4.7c0-25,1.8-50,2.6-75c0.5-17.2,1.5-35.7,11.1-50.6c11.3-17.5,33.7-26,54-24.4c10.8,0.9,23.2,4.7,31,12.6c2.9,2.9,5.7,5.7,8.5,8.7c1,1.1,2.3,2.3,3.4,3.6c12.2-12,29-18.4,46.8-17.4c11,0.6,23.3,3.5,31,12c5.8,6.4,9.2,14.3,14,21.4c1.6-1,3.2-2,4.8-2.9c20.7-11.4,46-16.8,69-9.8c22.1,6.8,41.3,22.6,50.2,44.2c8.9,21.7,8.1,44.9,7.7,67.8C409.9,331.2,415.3,361.9,413.6,392.9z"/><path fill="#D6E5E5" d="M258.1,108.9c-9.9-13.1-28.9-14.5-43.4-9.1c-7.1,2.6-13.8,7.2-15.6,15c-1.5,6.5-0.7,13.1,2.4,19c0.1,0.1,0.2,0.2,0.3,0.3c11,11.8,28.4,20.3,44.4,12.6C259.5,140.2,267.8,121.8,258.1,108.9z"/><path d="M487.8,168.7c-14.2-46.9-40.9-88.3-82-115.7C359.5,22,300.5,14.5,246,18.5c-51.7,3.8-104.6,17.9-148.6,46c-21.6,13.8-40.9,31.9-55,53.4c-14.9,22.7-22.5,48.8-26.6,75.4c-2.3,15.1-3.4,30.3-4.4,45.6c-0.1,0.9,0.1,1.8,0.4,2.6c-0.9,0.9-1.5,2.2-1.5,3.8c0,30.1-0.6,60.4,4.6,90.2c4.8,27.1,15.2,52.9,31.6,75.1c29.2,39.5,73.5,63.3,120.4,75c88.9,22.2,194.2,3.7,264.5-57.1C505.5,364.4,514.7,257.6,487.8,168.7z M423.4,421.2c-70.8,60.4-176.9,76-264.9,50.8c-42.7-12.2-81.9-36.6-107.2-73.7c-31.1-45.6-30.1-101-30.1-153.9c0-0.3,0-0.5-0.1-0.8c0.5-0.7,0.9-1.6,1-2.7c1.7-27,4.1-54.1,12.1-80.1c7.9-25.9,23.1-48.3,42.7-66.8c37.3-35.2,89.8-53.2,139.6-61.1c55.5-8.8,115.5-6.4,166.4,19.3c44.6,22.5,75.1,63.1,91.3,109.6C504.3,248.9,497.5,357.9,423.4,421.2z"/><path d="M410.5,300.2c0.4-22.9,1.3-46.2-7.7-67.8c-8.9-21.6-28.1-37.5-50.2-44.2c-23.1-7-48.4-1.6-69,9.8c-1.6,0.9-3.3,1.9-4.8,2.9c-4.8-7.1-8.1-15-14-21.4c-7.7-8.5-20-11.4-31-12c-17.7-1-34.6,5.3-46.8,17.4c-1-1.3-2.4-2.5-3.4-3.6c-2.8-3-5.6-5.8-8.5-8.7c-7.8-7.9-20.2-11.7-31-12.6c-20.3-1.7-42.8,6.9-54,24.4c-9.6,14.9-10.6,33.4-11.1,50.6c-0.8,25-2.5,50-2.6,75c0,2.4,2.1,4.2,4.2,4.7c28.1,7.3,57.2,3.4,85.9,3c-0.5,10.1-0.1,21.3,7.3,28.9c7.5,7.8,19.7,7.8,29.8,7.5c12.1-0.3,24.3-0.3,36.4-0.3c-0.6,12-1.2,24.1-0.8,36.2c0.1,3.2,2.4,4.7,4.9,4.7c0.1,0,0.2,0,0.3,0.1c21.7,3.4,43.6,5.5,65.4,8c15.7,1.8,31.7,2.2,47.5,1.8c7.5-0.2,15.1-0.5,22.6-1.4c7.5-0.9,15.1-3.5,22.7-2.7c2.1,0.2,3.7-0.7,4.8-2c2.8,0.1,6-1.8,6.2-5.4C415.3,361.9,409.9,331.2,410.5,300.2z M403.3,390c-6.5-0.4-12.8,0.7-19.2,1.9c-7.4,1.3-14.8,1.6-22.3,2c-16.1,0.7-32.2,0.4-48.3-1.3c-21.4-2.2-42.8-4.5-64-7.7c-0.2-9.3,0.1-18.6,0.5-27.8v-14.2h-9.5c0,0.2,0,0.3,0,0.5c-11.8-0.1-23.6-0.2-35.4,0.2c-8.6,0.3-20.3,1.5-25.6-6.7c-3-4.7-2.9-11.2-2.8-16.6c0.1-4.8,0.4-9.5,0.5-14.3h-10.4c0,0.4,0,0.8,0,1.2c-26.7,0.3-53.7,3.9-80-1.8c0.2-21.5,1.9-42.9,2.4-64.3c0.4-15.2,0.4-31.4,6.7-45.6c7.3-16.3,24.5-24.3,41.6-25.2c9.6-0.5,22.6,2.1,29.6,9.2c2.2,2.2,4.4,4.4,6.6,6.7c1.2,1.2,2.4,2.5,3.5,3.7c0.6,0.7,1.9,3,1.3,1.3c0.2,0.6,0.5,1.1,0.8,1.6c1.4,1,2.7,2.1,3.9,3.4h3.9c0.2-0.1,0.5-0.3,0.8-0.3c1.1-0.2,2.3-0.4,3.4-0.6c1.8-2.1,3.7-4.1,5.9-5.9c8.6-7.2,19.4-10.8,30.4-11.4c10.7-0.6,23.4,1.7,30.7,10.3c4.8,5.7,7.6,12.7,11.7,18.9c0,0,0,0,0,0c1.5,2.2,3.5,4.7,5.7,6.2h3.1c12.6-9.5,28.4-15.4,43.4-17.1c23.9-2.7,48.2,7.3,62.9,26.5c15,19.6,15.6,46,15.1,69.7c-0.4,16.6,0.1,33,1.3,49.6C402.8,357.8,403.9,373.9,403.3,390z"/><path d="M374.5 90.3c-17.1-11.1-40.6-13.4-59.5-6-11.6 4.5-20.8 12.8-25.4 24.5-4.4 11.2-4.3 23.5-2 35.1-.7 1.1-.9 2.6-.2 4.2 12.5 33.2 54.3 40.9 83.4 25.6 15.2-8 25.4-23.8 26.7-41C398.8 114.7 389.1 99.7 374.5 90.3zM385.3 140.4c-4.5 15.7-18.3 25.5-33.6 29.1-20.5 4.9-44.8-3.2-53.6-23 .3-.9.4-1.9.1-3-2.5-10.2-2.7-21.4 1.2-31.3 3.8-9.5 11.6-15.4 21-18.8 15.9-5.8 34.3-2.8 48.6 5.7C383.8 108 390 123.9 385.3 140.4zM266 102c-13.1-17.4-38.5-18.8-57.4-11.2-20.4 8.2-25.9 31.3-15.4 49.7.6 1.1 1.4 1.8 2.3 2.1 15 15.4 37.6 22.6 57.5 12.1C271.8 144.8 278.9 119.1 266 102zM246.1 146.6c-15.9 7.6-33.3-.9-44.4-12.6-.1-.1-.2-.2-.3-.3-3.1-5.9-3.9-12.5-2.4-19 1.8-7.9 8.5-12.4 15.6-15 14.5-5.3 33.5-4 43.4 9.1C267.8 121.8 259.5 140.2 246.1 146.6zM173.4 113c-2-8.2-8.1-14.9-15.4-18.9-7.8-4.3-17.4-3.7-25.7-1.4-8.2 2.3-16.6 7.5-21.1 14.9-5 8.2-5.3 17.8-4.6 27.2.1 1.5.7 2.6 1.6 3.4.1.1.2.3.3.4 10.2 14.9 27.9 20 44.9 14.3C169.6 147.5 177.2 128.8 173.4 113zM149.9 143c-12.2 4.8-25.4.4-32.7-10.2-.1-.1-.1-.2-.2-.2-.4-5.6-.4-11.3 1.7-16.6 2.5-6.3 8.4-10.1 14.4-12.4 12.1-4.8 25.5-1.2 30 11.7C167 126.1 160.3 139 149.9 143z"/></svg>